<?xml version="1.0" encoding="UTF-8" standalone="no"?>
<!-- Created with Inkscape (http://www.inkscape.org/) -->

<svg
   xmlns:dc="http://purl.org/dc/elements/1.1/"
   xmlns:cc="http://creativecommons.org/ns#"
   xmlns:rdf="http://www.w3.org/1999/02/22-rdf-syntax-ns#"
   xmlns:svg="http://www.w3.org/2000/svg"
   xmlns="http://www.w3.org/2000/svg"
   xmlns:sodipodi="http://sodipodi.sourceforge.net/DTD/sodipodi-0.dtd"
   xmlns:inkscape="http://www.inkscape.org/namespaces/inkscape"
   width="400"
   height="400"
   viewBox="0 0 105.83333 105.83333"
   version="1.1"
   id="svg8"
   sodipodi:docname="angel-2.svg"
   inkscape:version="0.92.3 (2405546, 2018-03-11)">
  <defs
     id="defs2" />
  <sodipodi:namedview
     id="base"
     pagecolor="#ffffff"
     bordercolor="#666666"
     borderopacity="1.0"
     inkscape:pageopacity="0.0"
     inkscape:pageshadow="2"
     inkscape:zoom="1.979899"
     inkscape:cx="151.07994"
     inkscape:cy="309.44573"
     inkscape:document-units="px"
     inkscape:current-layer="layer1"
     showgrid="false"
     units="px"
     inkscape:window-width="1853"
     inkscape:window-height="1016"
     inkscape:window-x="67"
     inkscape:window-y="27"
     inkscape:window-maximized="1">
    <inkscape:grid
       type="xygrid"
       id="grid3713"
       empspacing="5" />
  </sodipodi:namedview>
  <metadata
     id="metadata5">
    <rdf:RDF>
      <cc:Work
         rdf:about="">
        <dc:format>image/svg+xml</dc:format>
        <dc:type
           rdf:resource="http://purl.org/dc/dcmitype/StillImage" />
        <dc:title></dc:title>
      </cc:Work>
    </rdf:RDF>
  </metadata>
  <g
     inkscape:label="Layer 1"
     inkscape:groupmode="layer"
     id="layer1"
     transform="translate(0,-191.16668)">
    <path
       style="fill:#c0c0c0;stroke:#000000;stroke-width:0.26458332px;stroke-linecap:butt;stroke-linejoin:miter;stroke-opacity:0.03056769;fill-opacity:1"
       d="m 10.583333,201.75001 c 7.9375,10.58334 15.875,18.52084 21.166667,21.16667 5.291666,2.64583 0,42.33333 0,42.33333 v 0 c 0,0 -18.520834,-15.875 -21.166667,-21.16667 -2.6458333,-5.29166 -2.6458333,-31.74999 0,-42.33333 z"
       id="path4636"
       inkscape:connector-curvature="0" />
    <path
       style="fill:#c0c0c0;stroke:#000000;stroke-width:0.26458332px;stroke-linecap:butt;stroke-linejoin:miter;stroke-opacity:0.03056769;fill-opacity:1"
       d="m 74.083331,201.75001 c -7.9375,10.58334 -15.875,18.52084 -21.166667,21.16667 -5.291666,2.64583 0,42.33333 0,42.33333 v 0 c 0,0 18.520834,-15.875 21.166667,-21.16667 2.645833,-5.29166 2.645833,-31.74999 0,-42.33333 z"
       id="path4636-3"
       inkscape:connector-curvature="0" />
    <ellipse
       style="fill:none;fill-opacity:1;stroke:#c0c0c0;stroke-width:0.26458332;stroke-opacity:1"
       id="path4686"
       cx="42.333332"
       cy="213.65627"
       rx="7.9375"
       ry="3.96875" />
    <ellipse
       style="fill:none;fill-opacity:1;stroke:#c0c0c0;stroke-width:0.26458332;stroke-opacity:1"
       id="path4688"
       ry="3.96875"
       rx="7.9375"
       cy="211.01044"
       cx="42.333332" />
    <path
       style="fill:none;stroke:#c0c0c0;stroke-width:0.26458332px;stroke-linecap:butt;stroke-linejoin:miter;stroke-opacity:1"
       d="m 34.395833,211.01043 v 2.64583 0"
       id="path4690"
       inkscape:connector-curvature="0" />
    <path
       style="fill:none;stroke:#c0c0c0;stroke-width:0.26458332px;stroke-linecap:butt;stroke-linejoin:miter;stroke-opacity:1"
       d="m 50.270833,211.01043 v 2.64583"
       id="path4692"
       inkscape:connector-curvature="0" />
    <path
       style="fill:#ffcc00;fill-opacity:1;stroke:#c0c0c0;stroke-width:0.12626907;stroke-opacity:1"
       d="m 131.30115,78.16217 c -0.75983,-1.608183 -0.9283,-3.21961 -0.50829,-4.861829 0.46242,-1.808023 1.37455,-3.232423 3.15475,-4.926521 6.93147,-6.596186 22.94938,-9.531863 36.94394,-6.770885 10.06265,1.985254 17.22472,6.613031 18.37691,11.874263 0.2446,1.116928 0.10079,3.008201 -0.31054,4.083986 -0.61198,1.60055 -0.49829,1.588996 -1.92439,0.195581 -1.51769,-1.482904 -3.39092,-2.756714 -5.77619,-3.927859 -14.84044,-7.286508 -39.32882,-5.17369 -48.58683,4.191997 l -0.97167,0.982969 z"
       id="path4748"
       inkscape:connector-curvature="0"
       transform="matrix(0.26458333,0,0,0.26458333,0,191.16668)" />
    <path
       style="fill:#ffcc00;fill-opacity:1;stroke:#c0c0c0;stroke-width:0.12626907;stroke-opacity:1"
       d="m 156.49688,99.346737 c -5.34286,-0.336639 -10.38149,-1.370033 -14.57572,-2.989397 -7.16957,-2.768126 -11.35657,-6.973683 -11.37038,-11.420785 -0.003,-0.876527 0.37934,-2.404877 0.81717,-3.268899 l 0.33082,-0.652833 1.30932,1.261101 c 4.2283,4.072588 11.39272,6.855692 20.3952,7.922764 2.29973,0.272589 8.47688,0.378451 10.98992,0.18834 9.88613,-0.747885 18.22395,-3.769842 22.76976,-8.252669 0.61848,-0.609913 1.1383,-1.092892 1.15516,-1.073287 0.1632,0.189815 0.59573,1.228231 0.8223,1.974143 0.24038,0.791398 0.27169,1.120061 0.21643,2.271315 -0.0737,1.536254 -0.33092,2.399364 -1.09677,3.68079 -3.1208,5.221765 -12.13904,9.23278 -22.98751,10.224095 -2.02594,0.185125 -6.81355,0.258951 -8.7757,0.135322 z"
       id="path4750"
       inkscape:connector-curvature="0"
       transform="matrix(0.26458333,0,0,0.26458333,0,191.16668)" />
    <path
       style="fill:#ffcc00;fill-opacity:1;stroke:#c0c0c0;stroke-width:0.06313454;stroke-opacity:1"
       d="m 189.19138,80.432779 -0.25281,-0.436654 0.2755,-0.463013 0.27549,-0.463013 7.1e-4,0.899667 c 4e-4,0.494817 -0.01,0.899667 -0.0227,0.899667 -0.0129,0 -0.13716,-0.196494 -0.2762,-0.436654 z"
       id="path4752"
       inkscape:connector-curvature="0"
       transform="matrix(0.26458333,0,0,0.26458333,0,191.16668)" />
    <path
       style="fill:#ffcc00;fill-opacity:1;stroke:#c0c0c0;stroke-width:0.06313454;stroke-opacity:1"
       d="m 130.52368,79.986552 -3.5e-4,-0.914449 0.25774,0.44094 c 0.14176,0.242517 0.26193,0.455145 0.26705,0.472507 0.005,0.01736 -0.11071,0.230441 -0.2574,0.473509 l -0.2667,0.441942 z"
       id="path4754"
       inkscape:connector-curvature="0"
       transform="matrix(0.26458333,0,0,0.26458333,0,191.16668)" />
  </g>
</svg>
