<?xml version="1.0" encoding="UTF-8" standalone="no"?>
<!-- Created with Inkscape (http://www.inkscape.org/) -->

<svg
   xmlns:dc="http://purl.org/dc/elements/1.1/"
   xmlns:cc="http://creativecommons.org/ns#"
   xmlns:rdf="http://www.w3.org/1999/02/22-rdf-syntax-ns#"
   xmlns:svg="http://www.w3.org/2000/svg"
   xmlns="http://www.w3.org/2000/svg"
   xmlns:sodipodi="http://sodipodi.sourceforge.net/DTD/sodipodi-0.dtd"
   xmlns:inkscape="http://www.inkscape.org/namespaces/inkscape"
   width="400"
   height="400"
   viewBox="0 0 105.83333 105.83333"
   version="1.1"
   id="svg8"
   inkscape:version="0.92.3 (2405546, 2018-03-11)"
   sodipodi:docname="angel-3.svg">
  <defs
     id="defs2" />
  <sodipodi:namedview
     id="base"
     pagecolor="#ffffff"
     bordercolor="#666666"
     borderopacity="1.0"
     inkscape:pageopacity="0.0"
     inkscape:pageshadow="2"
     inkscape:zoom="2.7964971"
     inkscape:cx="160"
     inkscape:cy="237.41395"
     inkscape:document-units="px"
     inkscape:current-layer="layer1"
     showgrid="true"
     units="px"
     inkscape:window-width="1853"
     inkscape:window-height="1016"
     inkscape:window-x="67"
     inkscape:window-y="27"
     inkscape:window-maximized="1">
    <inkscape:grid
       type="xygrid"
       id="grid3713"
       empspacing="10" />
  </sodipodi:namedview>
  <metadata
     id="metadata5">
    <rdf:RDF>
      <cc:Work
         rdf:about="">
        <dc:format>image/svg+xml</dc:format>
        <dc:type
           rdf:resource="http://purl.org/dc/dcmitype/StillImage" />
        <dc:title></dc:title>
      </cc:Work>
    </rdf:RDF>
  </metadata>
  <g
     inkscape:label="Layer 1"
     inkscape:groupmode="layer"
     id="layer1"
     transform="translate(0,-191.16668)">
    <circle
       style="fill:none;fill-opacity:1;stroke:#ffcd00;stroke-width:0.26458332;stroke-opacity:1"
       id="path817"
       cx="42.333332"
       cy="212.33334"
       r="7.9375" />
    <path
       style="fill:none;stroke:#c0c0c0;stroke-width:0.26458332px;stroke-linecap:butt;stroke-linejoin:miter;stroke-opacity:1"
       d="m 10.583333,201.75001 c 0,52.91667 21.166667,63.5 21.166667,63.5 v 0"
       id="path821"
       inkscape:connector-curvature="0" />
    <path
       style="fill:none;stroke:#c0c0c0;stroke-width:0.26458332px;stroke-linecap:butt;stroke-linejoin:miter;stroke-opacity:1"
       d="M 10.583333,201.75001 C 15.875,212.33335 21.166666,212.33335 31.75,222.91668 c 10.583333,10.58333 0,42.33333 0,42.33333 v 0"
       id="path829"
       inkscape:connector-curvature="0" />
    <path
       style="fill:none;stroke:#c0c0c0;stroke-width:0.26458332px;stroke-linecap:butt;stroke-linejoin:miter;stroke-opacity:1"
       d="m 74.083332,201.75001 c 0,55.5625 -21.166666,63.5 -21.166666,63.5 v 0 c 0,0 -10.583334,-34.39583 -10e-7,-42.33333 10.583333,-7.9375 15.874999,-10.58333 21.166667,-21.16667 z"
       id="path831"
       inkscape:connector-curvature="0" />
    <circle
       style="fill:none;fill-opacity:1;stroke:#ffcd00;stroke-width:0.26458332;stroke-opacity:1"
       id="path845"
       cx="42.333332"
       cy="212.33334"
       r="5.2916665" />
    <path
       style="fill:#ffcc00;fill-opacity:1;stroke:#ffcd00;stroke-width:0.29091576;stroke-opacity:1"
       d="m 154.97709,108.9663 c -9.89768,-1.88837 -18.27536,-8.5568 -22.02787,-17.533659 -1.74385,-4.171698 -2.06502,-5.950546 -2.06502,-11.437543 0,-5.486997 0.32117,-7.265846 2.06502,-11.437543 3.23166,-7.730867 10.19519,-14.038421 18.30622,-16.581735 11.78165,-3.694287 24.70325,0.458505 32.14145,10.329739 4.46026,5.919213 6.54974,13.307434 5.805,20.525968 -0.39907,3.868045 -1.20171,6.662506 -2.90731,10.121995 -3.83083,7.770158 -10.93379,13.495348 -19.34169,15.589968 -3.04226,0.75791 -9.09869,0.97173 -11.9758,0.42281 z m 10.81214,-9.200755 c 6.3614,-1.959932 11.30787,-6.680299 13.70587,-13.079384 0.76018,-2.028556 0.81842,-2.488497 0.82877,-6.545605 0.0104,-4.055697 -0.0467,-4.528024 -0.80806,-6.691063 -3.33686,-9.479934 -13.03217,-15.409586 -22.60375,-13.824456 -6.69217,1.108276 -12.36167,5.261438 -15.29768,11.206215 -1.51808,3.073786 -2.14293,5.745828 -2.14293,9.163846 0,3.418019 0.62485,6.09006 2.14293,9.163847 2.78709,5.643259 8.13942,9.762118 14.38719,11.071595 2.65565,0.55661 7.16755,0.34225 9.78766,-0.464995 z"
       id="path857"
       inkscape:connector-curvature="0"
       transform="matrix(0.26458333,0,0,0.26458333,0,191.16668)" />
    <path
       style="fill:#cccccc;fill-opacity:1;stroke:#ffcd00;stroke-width:0.25285447;stroke-opacity:1"
       d="M 117.11438,277.51764 C 106.41356,270.37773 94.191382,256.84876 84.600362,241.52722 78.49023,231.76635 72.295308,219.51504 67.46755,207.64472 56.2223,179.99529 48.313401,146.46361 44.178469,108.90505 42.110349,90.11983 41.095284,72.893925 40.647202,48.978542 l -0.123176,-6.574216 1.038124,1.896408 c 7.746345,14.15075 15.488349,23.626378 27.384958,33.517117 1.668839,1.38746 5.082374,4.108349 7.585634,6.046425 2.503259,1.938074 7.339101,5.683322 10.746315,8.322773 12.181567,9.436641 20.013833,16.212581 29.547563,25.562501 6.30644,6.18486 8.81723,9.54049 11.92325,15.93524 4.53514,9.33707 7.13845,20.58243 8.10725,35.02034 0.43313,6.45473 0.16757,21.79488 -0.50711,29.29479 -2.02248,22.48206 -6.70989,46.74619 -13.80635,71.46772 -2.34321,8.16291 -2.70918,9.29226 -3.04768,9.4051 -0.12861,0.0429 -1.20033,-0.56693 -2.3816,-1.3551 z"
       id="path865"
       inkscape:connector-curvature="0"
       transform="matrix(0.26458333,0,0,0.26458333,0,191.16668)" />
    <path
       style="fill:#cccccc;fill-opacity:1;stroke:#ffcd00;stroke-width:0.25285447;stroke-opacity:1"
       d="m 200.22894,278.74319 c -1.05275,-3.54989 -3.85624,-13.99666 -5.10061,-19.00665 -6.05397,-24.37405 -9.96023,-47.16886 -11.67827,-68.14808 -0.55418,-6.76705 -0.63321,-24.77048 -0.13209,-30.08968 1.58329,-16.80617 5.40405,-28.29238 12.07672,-36.30582 2.40835,-2.89228 3.87162,-4.04791 20.46086,-16.15932 22.17342,-16.188266 29.53345,-22.103761 37.77745,-30.362939 9.02399,-9.040619 16.59688,-19.303153 23.21641,-31.46214 0.98425,-1.80791 1.97597,-3.628462 2.20382,-4.045672 0.38839,-0.711168 0.40521,-0.229313 0.26909,7.712061 -0.59534,34.734996 -2.92827,62.85592 -7.4783,90.14262 -7.89808,47.3651 -22.21032,85.56891 -41.79334,111.55942 -8.17707,10.85257 -17.9443,20.08384 -26.24756,24.8073 -3.06406,1.74304 -3.42011,1.87841 -3.57418,1.3589 z"
       id="path867"
       inkscape:connector-curvature="0"
       transform="matrix(0.26458333,0,0,0.26458333,0,191.16668)" />
  </g>
</svg>
